<svg id="whatsapp" xmlns="http://www.w3.org/2000/svg" width="38px" height="38px" viewBox="0 0 512 512">
  <path id="Path_1" data-name="Path 1" d="M256,0C114.637,0,0,114.637,0,256S114.637,512,256,512,512,397.363,512,256,397.363,0,256,0Zm5.426,405.051h-.062a153.161,153.161,0,0,1-73.223-18.645l-81.223,21.3,21.738-79.375A152.827,152.827,0,0,1,108.2,251.758C108.238,167.3,176.973,98.6,261.426,98.6A153.219,153.219,0,0,1,414.645,251.879c-.035,84.457-68.777,153.172-153.219,153.172Zm0,0" fill="#1877f2"/>
  <path id="Path_2" data-name="Path 2" d="M261.477,124.469c-70.246,0-127.375,57.105-127.406,127.3a127.006,127.006,0,0,0,19.473,67.75l3.027,4.816L143.7,371.317l48.2-12.641,4.652,2.758a127.146,127.146,0,0,0,64.816,17.746h.051c70.191,0,127.32-57.109,127.352-127.309a127.353,127.353,0,0,0-127.3-127.4ZM336.383,306.5c-3.191,8.938-18.484,17.1-25.84,18.2a52.542,52.542,0,0,1-24.113-1.516,221.1,221.1,0,0,1-21.828-8.062c-38.4-16.578-63.484-55.234-65.4-57.789s-15.633-20.754-15.633-39.594,9.891-28.1,13.4-31.926a14.073,14.073,0,0,1,10.211-4.789c2.551,0,5.105.023,7.336.133,2.352.117,5.508-.895,8.613,6.57,3.191,7.664,10.848,26.5,11.8,28.414a7.058,7.058,0,0,1,.32,6.707c-1.277,2.555-5.52,8.066-9.57,13.09-1.7,2.105-3.914,3.98-1.68,7.813s9.918,16.363,21.3,26.512c14.625,13.039,26.961,17.078,30.789,19s6.059,1.594,8.293-.957,9.57-11.176,12.121-15.008,5.105-3.191,8.613-1.914,22.332,10.535,26.16,12.449,6.379,2.875,7.336,4.473.961,9.258-2.23,18.2Zm0,0" fill="#1877f2"/>
</svg>
